<?xml version="1.0" encoding="utf-8" standalone="no"?>
<!DOCTYPE svg PUBLIC "-//W3C//DTD SVG 1.1//EN"
  "http://www.w3.org/Graphics/SVG/1.1/DTD/svg11.dtd">
<svg xmlns:xlink="http://www.w3.org/1999/xlink" width="1008pt" height="504pt" viewBox="0 0 1008 504" xmlns="http://www.w3.org/2000/svg" version="1.1">
 <metadata>
  <rdf:RDF xmlns:dc="http://purl.org/dc/elements/1.1/" xmlns:cc="http://creativecommons.org/ns#" xmlns:rdf="http://www.w3.org/1999/02/22-rdf-syntax-ns#">
   <cc:Work>
    <dc:type rdf:resource="http://purl.org/dc/dcmitype/StillImage"/>
    <dc:date>2025-10-07T11:21:51.828645</dc:date>
    <dc:format>image/svg+xml</dc:format>
    <dc:creator>
     <cc:Agent>
      <dc:title>Matplotlib v3.10.6, https://matplotlib.org/</dc:title>
     </cc:Agent>
    </dc:creator>
   </cc:Work>
  </rdf:RDF>
 </metadata>
 <defs>
  <style type="text/css">*{stroke-linejoin: round; stroke-linecap: butt}</style>
 </defs>
 <g id="figure_1">
  <g id="patch_1">
   <path d="M 0 504 
L 1008 504 
L 1008 0 
L 0 0 
z
" style="fill: #ffffff"/>
  </g>
  <g id="axes_1">
   <g id="patch_2">
    <path d="M 82.177792 321.485042 
L 997.2 321.485042 
L 997.2 26.88 
L 82.177792 26.88 
z
" style="fill: #ffffff"/>
   </g>
   <g id="matplotlib.axis_1">
    <g id="xtick_1">
     <g id="line2d_1">
      <defs>
       <path id="m6a8f1c2bbd" d="M 0 0 
L 0 3.5 
" style="stroke: #000000; stroke-width: 0.8"/>
      </defs>
      <g>
       <use xlink:href="#m6a8f1c2bbd" x="114.857157" y="321.485042" style="stroke: #000000; stroke-width: 0.8"/>
      </g>
     </g>
     <g id="text_1">
      <!-- JoinChainMember fallback -->
      <g transform="translate(21.440617 425.803928) rotate(-45) scale(0.1 -0.1)">
       <defs>
        <path id="DejaVuSans-4a" d="M 628 4666 
L 1259 4666 
L 1259 325 
Q 1259 -519 939 -900 
Q 619 -1281 -91 -1281 
L -331 -1281 
L -331 -750 
L -134 -750 
Q 284 -750 456 -515 
Q 628 -281 628 325 
L 628 4666 
z
" transform="scale(0.015625)"/>
        <path id="DejaVuSans-6f" d="M 1959 3097 
Q 1497 3097 1228 2736 
Q 959 2375 959 1747 
Q 959 1119 1226 758 
Q 1494 397 1959 397 
Q 2419 397 2687 759 
Q 2956 1122 2956 1747 
Q 2956 2369 2687 2733 
Q 2419 3097 1959 3097 
z
M 1959 3584 
Q 2709 3584 3137 3096 
Q 3566 2609 3566 1747 
Q 3566 888 3137 398 
Q 2709 -91 1959 -91 
Q 1206 -91 779 398 
Q 353 888 353 1747 
Q 353 2609 779 3096 
Q 1206 3584 1959 3584 
z
" transform="scale(0.015625)"/>
        <path id="DejaVuSans-69" d="M 603 3500 
L 1178 3500 
L 1178 0 
L 603 0 
L 603 3500 
z
M 603 4863 
L 1178 4863 
L 1178 4134 
L 603 4134 
L 603 4863 
z
" transform="scale(0.015625)"/>
        <path id="DejaVuSans-6e" d="M 3513 2113 
L 3513 0 
L 2938 0 
L 2938 2094 
Q 2938 2591 2744 2837 
Q 2550 3084 2163 3084 
Q 1697 3084 1428 2787 
Q 1159 2491 1159 1978 
L 1159 0 
L 581 0 
L 581 3500 
L 1159 3500 
L 1159 2956 
Q 1366 3272 1645 3428 
Q 1925 3584 2291 3584 
Q 2894 3584 3203 3211 
Q 3513 2838 3513 2113 
z
" transform="scale(0.015625)"/>
        <path id="DejaVuSans-43" d="M 4122 4306 
L 4122 3641 
Q 3803 3938 3442 4084 
Q 3081 4231 2675 4231 
Q 1875 4231 1450 3742 
Q 1025 3253 1025 2328 
Q 1025 1406 1450 917 
Q 1875 428 2675 428 
Q 3081 428 3442 575 
Q 3803 722 4122 1019 
L 4122 359 
Q 3791 134 3420 21 
Q 3050 -91 2638 -91 
Q 1578 -91 968 557 
Q 359 1206 359 2328 
Q 359 3453 968 4101 
Q 1578 4750 2638 4750 
Q 3056 4750 3426 4639 
Q 3797 4528 4122 4306 
z
" transform="scale(0.015625)"/>
        <path id="DejaVuSans-68" d="M 3513 2113 
L 3513 0 
L 2938 0 
L 2938 2094 
Q 2938 2591 2744 2837 
Q 2550 3084 2163 3084 
Q 1697 3084 1428 2787 
Q 1159 2491 1159 1978 
L 1159 0 
L 581 0 
L 581 4863 
L 1159 4863 
L 1159 2956 
Q 1366 3272 1645 3428 
Q 1925 3584 2291 3584 
Q 2894 3584 3203 3211 
Q 3513 2838 3513 2113 
z
" transform="scale(0.015625)"/>
        <path id="DejaVuSans-61" d="M 2194 1759 
Q 1497 1759 1228 1600 
Q 959 1441 959 1056 
Q 959 750 1161 570 
Q 1363 391 1709 391 
Q 2188 391 2477 730 
Q 2766 1069 2766 1631 
L 2766 1759 
L 2194 1759 
z
M 3341 1997 
L 3341 0 
L 2766 0 
L 2766 531 
Q 2569 213 2275 61 
Q 1981 -91 1556 -91 
Q 1019 -91 701 211 
Q 384 513 384 1019 
Q 384 1609 779 1909 
Q 1175 2209 1959 2209 
L 2766 2209 
L 2766 2266 
Q 2766 2663 2505 2880 
Q 2244 3097 1772 3097 
Q 1472 3097 1187 3025 
Q 903 2953 641 2809 
L 641 3341 
Q 956 3463 1253 3523 
Q 1550 3584 1831 3584 
Q 2591 3584 2966 3190 
Q 3341 2797 3341 1997 
z
" transform="scale(0.015625)"/>
        <path id="DejaVuSans-4d" d="M 628 4666 
L 1569 4666 
L 2759 1491 
L 3956 4666 
L 4897 4666 
L 4897 0 
L 4281 0 
L 4281 4097 
L 3078 897 
L 2444 897 
L 1241 4097 
L 1241 0 
L 628 0 
L 628 4666 
z
" transform="scale(0.015625)"/>
        <path id="DejaVuSans-65" d="M 3597 1894 
L 3597 1613 
L 953 1613 
Q 991 1019 1311 708 
Q 1631 397 2203 397 
Q 2534 397 2845 478 
Q 3156 559 3463 722 
L 3463 178 
Q 3153 47 2828 -22 
Q 2503 -91 2169 -91 
Q 1331 -91 842 396 
Q 353 884 353 1716 
Q 353 2575 817 3079 
Q 1281 3584 2069 3584 
Q 2775 3584 3186 3129 
Q 3597 2675 3597 1894 
z
M 3022 2063 
Q 3016 2534 2758 2815 
Q 2500 3097 2075 3097 
Q 1594 3097 1305 2825 
Q 1016 2553 972 2059 
L 3022 2063 
z
" transform="scale(0.015625)"/>
        <path id="DejaVuSans-6d" d="M 3328 2828 
Q 3544 3216 3844 3400 
Q 4144 3584 4550 3584 
Q 5097 3584 5394 3201 
Q 5691 2819 5691 2113 
L 5691 0 
L 5113 0 
L 5113 2094 
Q 5113 2597 4934 2840 
Q 4756 3084 4391 3084 
Q 3944 3084 3684 2787 
Q 3425 2491 3425 1978 
L 3425 0 
L 2847 0 
L 2847 2094 
Q 2847 2600 2669 2842 
Q 2491 3084 2119 3084 
Q 1678 3084 1418 2786 
Q 1159 2488 1159 1978 
L 1159 0 
L 581 0 
L 581 3500 
L 1159 3500 
L 1159 2956 
Q 1356 3278 1631 3431 
Q 1906 3584 2284 3584 
Q 2666 3584 2933 3390 
Q 3200 3197 3328 2828 
z
" transform="scale(0.015625)"/>
        <path id="DejaVuSans-62" d="M 3116 1747 
Q 3116 2381 2855 2742 
Q 2594 3103 2138 3103 
Q 1681 3103 1420 2742 
Q 1159 2381 1159 1747 
Q 1159 1113 1420 752 
Q 1681 391 2138 391 
Q 2594 391 2855 752 
Q 3116 1113 3116 1747 
z
M 1159 2969 
Q 1341 3281 1617 3432 
Q 1894 3584 2278 3584 
Q 2916 3584 3314 3078 
Q 3713 2572 3713 1747 
Q 3713 922 3314 415 
Q 2916 -91 2278 -91 
Q 1894 -91 1617 61 
Q 1341 213 1159 525 
L 1159 0 
L 581 0 
L 581 4863 
L 1159 4863 
L 1159 2969 
z
" transform="scale(0.015625)"/>
        <path id="DejaVuSans-72" d="M 2631 2963 
Q 2534 3019 2420 3045 
Q 2306 3072 2169 3072 
Q 1681 3072 1420 2755 
Q 1159 2438 1159 1844 
L 1159 0 
L 581 0 
L 581 3500 
L 1159 3500 
L 1159 2956 
Q 1341 3275 1631 3429 
Q 1922 3584 2338 3584 
Q 2397 3584 2469 3576 
Q 2541 3569 2628 3553 
L 2631 2963 
z
" transform="scale(0.015625)"/>
        <path id="DejaVuSans-20" transform="scale(0.015625)"/>
        <path id="DejaVuSans-66" d="M 2375 4863 
L 2375 4384 
L 1825 4384 
Q 1516 4384 1395 4259 
Q 1275 4134 1275 3809 
L 1275 3500 
L 2222 3500 
L 2222 3053 
L 1275 3053 
L 1275 0 
L 697 0 
L 697 3053 
L 147 3053 
L 147 3500 
L 697 3500 
L 697 3744 
Q 697 4328 969 4595 
Q 1241 4863 1831 4863 
L 2375 4863 
z
" transform="scale(0.015625)"/>
        <path id="DejaVuSans-6c" d="M 603 4863 
L 1178 4863 
L 1178 0 
L 603 0 
L 603 4863 
z
" transform="scale(0.015625)"/>
        <path id="DejaVuSans-63" d="M 3122 3366 
L 3122 2828 
Q 2878 2963 2633 3030 
Q 2388 3097 2138 3097 
Q 1578 3097 1268 2742 
Q 959 2388 959 1747 
Q 959 1106 1268 751 
Q 1578 397 2138 397 
Q 2388 397 2633 464 
Q 2878 531 3122 666 
L 3122 134 
Q 2881 22 2623 -34 
Q 2366 -91 2075 -91 
Q 1284 -91 818 406 
Q 353 903 353 1747 
Q 353 2603 823 3093 
Q 1294 3584 2113 3584 
Q 2378 3584 2631 3529 
Q 2884 3475 3122 3366 
z
" transform="scale(0.015625)"/>
        <path id="DejaVuSans-6b" d="M 581 4863 
L 1159 4863 
L 1159 1991 
L 2875 3500 
L 3609 3500 
L 1753 1863 
L 3688 0 
L 2938 0 
L 1159 1709 
L 1159 0 
L 581 0 
L 581 4863 
z
" transform="scale(0.015625)"/>
       </defs>
       <use xlink:href="#DejaVuSans-4a"/>
       <use xlink:href="#DejaVuSans-6f" transform="translate(29.492188 0)"/>
       <use xlink:href="#DejaVuSans-69" transform="translate(90.673828 0)"/>
       <use xlink:href="#DejaVuSans-6e" transform="translate(118.457031 0)"/>
       <use xlink:href="#DejaVuSans-43" transform="translate(181.835938 0)"/>
       <use xlink:href="#DejaVuSans-68" transform="translate(251.660156 0)"/>
       <use xlink:href="#DejaVuSans-61" transform="translate(315.039062 0)"/>
       <use xlink:href="#DejaVuSans-69" transform="translate(376.318359 0)"/>
       <use xlink:href="#DejaVuSans-6e" transform="translate(404.101562 0)"/>
       <use xlink:href="#DejaVuSans-4d" transform="translate(467.480469 0)"/>
       <use xlink:href="#DejaVuSans-65" transform="translate(553.759766 0)"/>
       <use xlink:href="#DejaVuSans-6d" transform="translate(615.283203 0)"/>
       <use xlink:href="#DejaVuSans-62" transform="translate(712.695312 0)"/>
       <use xlink:href="#DejaVuSans-65" transform="translate(776.171875 0)"/>
       <use xlink:href="#DejaVuSans-72" transform="translate(837.695312 0)"/>
       <use xlink:href="#DejaVuSans-20" transform="translate(878.808594 0)"/>
       <use xlink:href="#DejaVuSans-66" transform="translate(910.595703 0)"/>
       <use xlink:href="#DejaVuSans-61" transform="translate(945.800781 0)"/>
       <use xlink:href="#DejaVuSans-6c" transform="translate(1007.080078 0)"/>
       <use xlink:href="#DejaVuSans-6c" transform="translate(1034.863281 0)"/>
       <use xlink:href="#DejaVuSans-62" transform="translate(1062.646484 0)"/>
       <use xlink:href="#DejaVuSans-61" transform="translate(1126.123047 0)"/>
       <use xlink:href="#DejaVuSans-63" transform="translate(1187.402344 0)"/>
       <use xlink:href="#DejaVuSans-6b" transform="translate(1242.382812 0)"/>
      </g>
     </g>
    </g>
    <g id="xtick_2">
     <g id="line2d_2">
      <g>
       <use xlink:href="#m6a8f1c2bbd" x="180.215886" y="321.485042" style="stroke: #000000; stroke-width: 0.8"/>
      </g>
     </g>
     <g id="text_2">
      <!-- Chainmember(join) fallback -->
      <g transform="translate(80.616581 431.986693) rotate(-45) scale(0.1 -0.1)">
       <defs>
        <path id="DejaVuSans-28" d="M 1984 4856 
Q 1566 4138 1362 3434 
Q 1159 2731 1159 2009 
Q 1159 1288 1364 580 
Q 1569 -128 1984 -844 
L 1484 -844 
Q 1016 -109 783 600 
Q 550 1309 550 2009 
Q 550 2706 781 3412 
Q 1013 4119 1484 4856 
L 1984 4856 
z
" transform="scale(0.015625)"/>
        <path id="DejaVuSans-6a" d="M 603 3500 
L 1178 3500 
L 1178 -63 
Q 1178 -731 923 -1031 
Q 669 -1331 103 -1331 
L -116 -1331 
L -116 -844 
L 38 -844 
Q 366 -844 484 -692 
Q 603 -541 603 -63 
L 603 3500 
z
M 603 4863 
L 1178 4863 
L 1178 4134 
L 603 4134 
L 603 4863 
z
" transform="scale(0.015625)"/>
        <path id="DejaVuSans-29" d="M 513 4856 
L 1013 4856 
Q 1481 4119 1714 3412 
Q 1947 2706 1947 2009 
Q 1947 1309 1714 600 
Q 1481 -109 1013 -844 
L 513 -844 
Q 928 -128 1133 580 
Q 1338 1288 1338 2009 
Q 1338 2731 1133 3434 
Q 928 4138 513 4856 
z
" transform="scale(0.015625)"/>
       </defs>
       <use xlink:href="#DejaVuSans-43"/>
       <use xlink:href="#DejaVuSans-68" transform="translate(69.824219 0)"/>
       <use xlink:href="#DejaVuSans-61" transform="translate(133.203125 0)"/>
       <use xlink:href="#DejaVuSans-69" transform="translate(194.482422 0)"/>
       <use xlink:href="#DejaVuSans-6e" transform="translate(222.265625 0)"/>
       <use xlink:href="#DejaVuSans-6d" transform="translate(285.644531 0)"/>
       <use xlink:href="#DejaVuSans-65" transform="translate(383.056641 0)"/>
       <use xlink:href="#DejaVuSans-6d" transform="translate(444.580078 0)"/>
       <use xlink:href="#DejaVuSans-62" transform="translate(541.992188 0)"/>
       <use xlink:href="#DejaVuSans-65" transform="translate(605.46875 0)"/>
       <use xlink:href="#DejaVuSans-72" transform="translate(666.992188 0)"/>
       <use xlink:href="#DejaVuSans-28" transform="translate(708.105469 0)"/>
       <use xlink:href="#DejaVuSans-6a" transform="translate(747.119141 0)"/>
       <use xlink:href="#DejaVuSans-6f" transform="translate(774.902344 0)"/>
       <use xlink:href="#DejaVuSans-69" transform="translate(836.083984 0)"/>
       <use xlink:href="#DejaVuSans-6e" transform="translate(863.867188 0)"/>
       <use xlink:href="#DejaVuSans-29" transform="translate(927.246094 0)"/>
       <use xlink:href="#DejaVuSans-20" transform="translate(966.259766 0)"/>
       <use xlink:href="#DejaVuSans-66" transform="translate(998.046875 0)"/>
       <use xlink:href="#DejaVuSans-61" transform="translate(1033.251953 0)"/>
       <use xlink:href="#DejaVuSans-6c" transform="translate(1094.53125 0)"/>
       <use xlink:href="#DejaVuSans-6c" transform="translate(1122.314453 0)"/>
       <use xlink:href="#DejaVuSans-62" transform="translate(1150.097656 0)"/>
       <use xlink:href="#DejaVuSans-61" transform="translate(1213.574219 0)"/>
       <use xlink:href="#DejaVuSans-63" transform="translate(1274.853516 0)"/>
       <use xlink:href="#DejaVuSans-6b" transform="translate(1329.833984 0)"/>
      </g>
     </g>
    </g>
    <g id="xtick_3">
     <g id="line2d_3">
      <g>
       <use xlink:href="#m6a8f1c2bbd" x="245.574615" y="321.485042" style="stroke: #000000; stroke-width: 0.8"/>
      </g>
     </g>
     <g id="text_3">
      <!-- prey detected -->
      <g transform="translate(194.620942 383.341061) rotate(-45) scale(0.1 -0.1)">
       <defs>
        <path id="DejaVuSans-70" d="M 1159 525 
L 1159 -1331 
L 581 -1331 
L 581 3500 
L 1159 3500 
L 1159 2969 
Q 1341 3281 1617 3432 
Q 1894 3584 2278 3584 
Q 2916 3584 3314 3078 
Q 3713 2572 3713 1747 
Q 3713 922 3314 415 
Q 2916 -91 2278 -91 
Q 1894 -91 1617 61 
Q 1341 213 1159 525 
z
M 3116 1747 
Q 3116 2381 2855 2742 
Q 2594 3103 2138 3103 
Q 1681 3103 1420 2742 
Q 1159 2381 1159 1747 
Q 1159 1113 1420 752 
Q 1681 391 2138 391 
Q 2594 391 2855 752 
Q 3116 1113 3116 1747 
z
" transform="scale(0.015625)"/>
        <path id="DejaVuSans-79" d="M 2059 -325 
Q 1816 -950 1584 -1140 
Q 1353 -1331 966 -1331 
L 506 -1331 
L 506 -850 
L 844 -850 
Q 1081 -850 1212 -737 
Q 1344 -625 1503 -206 
L 1606 56 
L 191 3500 
L 800 3500 
L 1894 763 
L 2988 3500 
L 3597 3500 
L 2059 -325 
z
" transform="scale(0.015625)"/>
        <path id="DejaVuSans-64" d="M 2906 2969 
L 2906 4863 
L 3481 4863 
L 3481 0 
L 2906 0 
L 2906 525 
Q 2725 213 2448 61 
Q 2172 -91 1784 -91 
Q 1150 -91 751 415 
Q 353 922 353 1747 
Q 353 2572 751 3078 
Q 1150 3584 1784 3584 
Q 2172 3584 2448 3432 
Q 2725 3281 2906 2969 
z
M 947 1747 
Q 947 1113 1208 752 
Q 1469 391 1925 391 
Q 2381 391 2643 752 
Q 2906 1113 2906 1747 
Q 2906 2381 2643 2742 
Q 2381 3103 1925 3103 
Q 1469 3103 1208 2742 
Q 947 2381 947 1747 
z
" transform="scale(0.015625)"/>
        <path id="DejaVuSans-74" d="M 1172 4494 
L 1172 3500 
L 2356 3500 
L 2356 3053 
L 1172 3053 
L 1172 1153 
Q 1172 725 1289 603 
Q 1406 481 1766 481 
L 2356 481 
L 2356 0 
L 1766 0 
Q 1100 0 847 248 
Q 594 497 594 1153 
L 594 3053 
L 172 3053 
L 172 3500 
L 594 3500 
L 594 4494 
L 1172 4494 
z
" transform="scale(0.015625)"/>
       </defs>
       <use xlink:href="#DejaVuSans-70"/>
       <use xlink:href="#DejaVuSans-72" transform="translate(63.476562 0)"/>
       <use xlink:href="#DejaVuSans-65" transform="translate(102.339844 0)"/>
       <use xlink:href="#DejaVuSans-79" transform="translate(163.863281 0)"/>
       <use xlink:href="#DejaVuSans-20" transform="translate(223.042969 0)"/>
       <use xlink:href="#DejaVuSans-64" transform="translate(254.830078 0)"/>
       <use xlink:href="#DejaVuSans-65" transform="translate(318.306641 0)"/>
       <use xlink:href="#DejaVuSans-74" transform="translate(379.830078 0)"/>
       <use xlink:href="#DejaVuSans-65" transform="translate(419.039062 0)"/>
       <use xlink:href="#DejaVuSans-63" transform="translate(480.5625 0)"/>
       <use xlink:href="#DejaVuSans-74" transform="translate(535.542969 0)"/>
       <use xlink:href="#DejaVuSans-65" transform="translate(574.751953 0)"/>
       <use xlink:href="#DejaVuSans-64" transform="translate(636.275391 0)"/>
      </g>
     </g>
    </g>
    <g id="xtick_4">
     <g id="line2d_4">
      <g>
       <use xlink:href="#m6a8f1c2bbd" x="310.933344" y="321.485042" style="stroke: #000000; stroke-width: 0.8"/>
      </g>
     </g>
     <g id="text_4">
      <!-- Timeout executed -->
      <g transform="translate(245.811019 397.509713) rotate(-45) scale(0.1 -0.1)">
       <defs>
        <path id="DejaVuSans-54" d="M -19 4666 
L 3928 4666 
L 3928 4134 
L 2272 4134 
L 2272 0 
L 1638 0 
L 1638 4134 
L -19 4134 
L -19 4666 
z
" transform="scale(0.015625)"/>
        <path id="DejaVuSans-75" d="M 544 1381 
L 544 3500 
L 1119 3500 
L 1119 1403 
Q 1119 906 1312 657 
Q 1506 409 1894 409 
Q 2359 409 2629 706 
Q 2900 1003 2900 1516 
L 2900 3500 
L 3475 3500 
L 3475 0 
L 2900 0 
L 2900 538 
Q 2691 219 2414 64 
Q 2138 -91 1772 -91 
Q 1169 -91 856 284 
Q 544 659 544 1381 
z
M 1991 3584 
L 1991 3584 
z
" transform="scale(0.015625)"/>
        <path id="DejaVuSans-78" d="M 3513 3500 
L 2247 1797 
L 3578 0 
L 2900 0 
L 1881 1375 
L 863 0 
L 184 0 
L 1544 1831 
L 300 3500 
L 978 3500 
L 1906 2253 
L 2834 3500 
L 3513 3500 
z
" transform="scale(0.015625)"/>
       </defs>
       <use xlink:href="#DejaVuSans-54"/>
       <use xlink:href="#DejaVuSans-69" transform="translate(57.958984 0)"/>
       <use xlink:href="#DejaVuSans-6d" transform="translate(85.742188 0)"/>
       <use xlink:href="#DejaVuSans-65" transform="translate(183.154297 0)"/>
       <use xlink:href="#DejaVuSans-6f" transform="translate(244.677734 0)"/>
       <use xlink:href="#DejaVuSans-75" transform="translate(305.859375 0)"/>
       <use xlink:href="#DejaVuSans-74" transform="translate(369.238281 0)"/>
       <use xlink:href="#DejaVuSans-20" transform="translate(408.447266 0)"/>
       <use xlink:href="#DejaVuSans-65" transform="translate(440.234375 0)"/>
       <use xlink:href="#DejaVuSans-78" transform="translate(500.007812 0)"/>
       <use xlink:href="#DejaVuSans-65" transform="translate(556.0625 0)"/>
       <use xlink:href="#DejaVuSans-63" transform="translate(617.585938 0)"/>
       <use xlink:href="#DejaVuSans-75" transform="translate(672.566406 0)"/>
       <use xlink:href="#DejaVuSans-74" transform="translate(735.945312 0)"/>
       <use xlink:href="#DejaVuSans-65" transform="translate(775.154297 0)"/>
       <use xlink:href="#DejaVuSans-64" transform="translate(836.677734 0)"/>
      </g>
     </g>
    </g>
    <g id="xtick_5">
     <g id="line2d_5">
      <g>
       <use xlink:href="#m6a8f1c2bbd" x="376.292073" y="321.485042" style="stroke: #000000; stroke-width: 0.8"/>
      </g>
     </g>
     <g id="text_5">
      <!-- Transfer for Chainmember successful -->
      <g transform="translate(243.264295 465.415166) rotate(-45) scale(0.1 -0.1)">
       <defs>
        <path id="DejaVuSans-73" d="M 2834 3397 
L 2834 2853 
Q 2591 2978 2328 3040 
Q 2066 3103 1784 3103 
Q 1356 3103 1142 2972 
Q 928 2841 928 2578 
Q 928 2378 1081 2264 
Q 1234 2150 1697 2047 
L 1894 2003 
Q 2506 1872 2764 1633 
Q 3022 1394 3022 966 
Q 3022 478 2636 193 
Q 2250 -91 1575 -91 
Q 1294 -91 989 -36 
Q 684 19 347 128 
L 347 722 
Q 666 556 975 473 
Q 1284 391 1588 391 
Q 1994 391 2212 530 
Q 2431 669 2431 922 
Q 2431 1156 2273 1281 
Q 2116 1406 1581 1522 
L 1381 1569 
Q 847 1681 609 1914 
Q 372 2147 372 2553 
Q 372 3047 722 3315 
Q 1072 3584 1716 3584 
Q 2034 3584 2315 3537 
Q 2597 3491 2834 3397 
z
" transform="scale(0.015625)"/>
       </defs>
       <use xlink:href="#DejaVuSans-54"/>
       <use xlink:href="#DejaVuSans-72" transform="translate(46.333984 0)"/>
       <use xlink:href="#DejaVuSans-61" transform="translate(87.447266 0)"/>
       <use xlink:href="#DejaVuSans-6e" transform="translate(148.726562 0)"/>
       <use xlink:href="#DejaVuSans-73" transform="translate(212.105469 0)"/>
       <use xlink:href="#DejaVuSans-66" transform="translate(264.205078 0)"/>
       <use xlink:href="#DejaVuSans-65" transform="translate(299.410156 0)"/>
       <use xlink:href="#DejaVuSans-72" transform="translate(360.933594 0)"/>
       <use xlink:href="#DejaVuSans-20" transform="translate(402.046875 0)"/>
       <use xlink:href="#DejaVuSans-66" transform="translate(433.833984 0)"/>
       <use xlink:href="#DejaVuSans-6f" transform="translate(469.039062 0)"/>
       <use xlink:href="#DejaVuSans-72" transform="translate(530.220703 0)"/>
       <use xlink:href="#DejaVuSans-20" transform="translate(571.333984 0)"/>
       <use xlink:href="#DejaVuSans-43" transform="translate(603.121094 0)"/>
       <use xlink:href="#DejaVuSans-68" transform="translate(672.945312 0)"/>
       <use xlink:href="#DejaVuSans-61" transform="translate(736.324219 0)"/>
       <use xlink:href="#DejaVuSans-69" transform="translate(797.603516 0)"/>
       <use xlink:href="#DejaVuSans-6e" transform="translate(825.386719 0)"/>
       <use xlink:href="#DejaVuSans-6d" transform="translate(888.765625 0)"/>
       <use xlink:href="#DejaVuSans-65" transform="translate(986.177734 0)"/>
       <use xlink:href="#DejaVuSans-6d" transform="translate(1047.701172 0)"/>
       <use xlink:href="#DejaVuSans-62" transform="translate(1145.113281 0)"/>
       <use xlink:href="#DejaVuSans-65" transform="translate(1208.589844 0)"/>
       <use xlink:href="#DejaVuSans-72" transform="translate(1270.113281 0)"/>
       <use xlink:href="#DejaVuSans-20" transform="translate(1311.226562 0)"/>
       <use xlink:href="#DejaVuSans-73" transform="translate(1343.013672 0)"/>
       <use xlink:href="#DejaVuSans-75" transform="translate(1395.113281 0)"/>
       <use xlink:href="#DejaVuSans-63" transform="translate(1458.492188 0)"/>
       <use xlink:href="#DejaVuSans-63" transform="translate(1513.472656 0)"/>
       <use xlink:href="#DejaVuSans-65" transform="translate(1568.453125 0)"/>
       <use xlink:href="#DejaVuSans-73" transform="translate(1629.976562 0)"/>
       <use xlink:href="#DejaVuSans-73" transform="translate(1682.076172 0)"/>
       <use xlink:href="#DejaVuSans-66" transform="translate(1734.175781 0)"/>
       <use xlink:href="#DejaVuSans-75" transform="translate(1769.380859 0)"/>
       <use xlink:href="#DejaVuSans-6c" transform="translate(1832.759766 0)"/>
      </g>
     </g>
    </g>
    <g id="xtick_6">
     <g id="line2d_6">
      <g>
       <use xlink:href="#m6a8f1c2bbd" x="441.650802" y="321.485042" style="stroke: #000000; stroke-width: 0.8"/>
      </g>
     </g>
     <g id="text_6">
      <!-- nothing changed -->
      <g transform="translate(380.424194 393.613996) rotate(-45) scale(0.1 -0.1)">
       <defs>
        <path id="DejaVuSans-67" d="M 2906 1791 
Q 2906 2416 2648 2759 
Q 2391 3103 1925 3103 
Q 1463 3103 1205 2759 
Q 947 2416 947 1791 
Q 947 1169 1205 825 
Q 1463 481 1925 481 
Q 2391 481 2648 825 
Q 2906 1169 2906 1791 
z
M 3481 434 
Q 3481 -459 3084 -895 
Q 2688 -1331 1869 -1331 
Q 1566 -1331 1297 -1286 
Q 1028 -1241 775 -1147 
L 775 -588 
Q 1028 -725 1275 -790 
Q 1522 -856 1778 -856 
Q 2344 -856 2625 -561 
Q 2906 -266 2906 331 
L 2906 616 
Q 2728 306 2450 153 
Q 2172 0 1784 0 
Q 1141 0 747 490 
Q 353 981 353 1791 
Q 353 2603 747 3093 
Q 1141 3584 1784 3584 
Q 2172 3584 2450 3431 
Q 2728 3278 2906 2969 
L 2906 3500 
L 3481 3500 
L 3481 434 
z
" transform="scale(0.015625)"/>
       </defs>
       <use xlink:href="#DejaVuSans-6e"/>
       <use xlink:href="#DejaVuSans-6f" transform="translate(63.378906 0)"/>
       <use xlink:href="#DejaVuSans-74" transform="translate(124.560547 0)"/>
       <use xlink:href="#DejaVuSans-68" transform="translate(163.769531 0)"/>
       <use xlink:href="#DejaVuSans-69" transform="translate(227.148438 0)"/>
       <use xlink:href="#DejaVuSans-6e" transform="translate(254.931641 0)"/>
       <use xlink:href="#DejaVuSans-67" transform="translate(318.310547 0)"/>
       <use xlink:href="#DejaVuSans-20" transform="translate(381.787109 0)"/>
       <use xlink:href="#DejaVuSans-63" transform="translate(413.574219 0)"/>
       <use xlink:href="#DejaVuSans-68" transform="translate(468.554688 0)"/>
       <use xlink:href="#DejaVuSans-61" transform="translate(531.933594 0)"/>
       <use xlink:href="#DejaVuSans-6e" transform="translate(593.212891 0)"/>
       <use xlink:href="#DejaVuSans-67" transform="translate(656.591797 0)"/>
       <use xlink:href="#DejaVuSans-65" transform="translate(720.068359 0)"/>
       <use xlink:href="#DejaVuSans-64" transform="translate(781.591797 0)"/>
      </g>
     </g>
    </g>
    <g id="xtick_7">
     <g id="line2d_7">
      <g>
       <use xlink:href="#m6a8f1c2bbd" x="507.009531" y="321.485042" style="stroke: #000000; stroke-width: 0.8"/>
      </g>
     </g>
     <g id="text_7">
      <!-- to close to nest -->
      <g transform="translate(451.098377 388.298542) rotate(-45) scale(0.1 -0.1)">
       <use xlink:href="#DejaVuSans-74"/>
       <use xlink:href="#DejaVuSans-6f" transform="translate(39.208984 0)"/>
       <use xlink:href="#DejaVuSans-20" transform="translate(100.390625 0)"/>
       <use xlink:href="#DejaVuSans-63" transform="translate(132.177734 0)"/>
       <use xlink:href="#DejaVuSans-6c" transform="translate(187.158203 0)"/>
       <use xlink:href="#DejaVuSans-6f" transform="translate(214.941406 0)"/>
       <use xlink:href="#DejaVuSans-73" transform="translate(276.123047 0)"/>
       <use xlink:href="#DejaVuSans-65" transform="translate(328.222656 0)"/>
       <use xlink:href="#DejaVuSans-20" transform="translate(389.746094 0)"/>
       <use xlink:href="#DejaVuSans-74" transform="translate(421.533203 0)"/>
       <use xlink:href="#DejaVuSans-6f" transform="translate(460.742188 0)"/>
       <use xlink:href="#DejaVuSans-20" transform="translate(521.923828 0)"/>
       <use xlink:href="#DejaVuSans-6e" transform="translate(553.710938 0)"/>
       <use xlink:href="#DejaVuSans-65" transform="translate(617.089844 0)"/>
       <use xlink:href="#DejaVuSans-73" transform="translate(678.613281 0)"/>
       <use xlink:href="#DejaVuSans-74" transform="translate(730.712891 0)"/>
      </g>
     </g>
    </g>
    <g id="xtick_8">
     <g id="line2d_8">
      <g>
       <use xlink:href="#m6a8f1c2bbd" x="572.368261" y="321.485042" style="stroke: #000000; stroke-width: 0.8"/>
      </g>
     </g>
     <g id="text_8">
      <!-- JoinChainMember switch to load state -->
      <g transform="translate(437.070007 467.685641) rotate(-45) scale(0.1 -0.1)">
       <defs>
        <path id="DejaVuSans-77" d="M 269 3500 
L 844 3500 
L 1563 769 
L 2278 3500 
L 2956 3500 
L 3675 769 
L 4391 3500 
L 4966 3500 
L 4050 0 
L 3372 0 
L 2619 2869 
L 1863 0 
L 1184 0 
L 269 3500 
z
" transform="scale(0.015625)"/>
       </defs>
       <use xlink:href="#DejaVuSans-4a"/>
       <use xlink:href="#DejaVuSans-6f" transform="translate(29.492188 0)"/>
       <use xlink:href="#DejaVuSans-69" transform="translate(90.673828 0)"/>
       <use xlink:href="#DejaVuSans-6e" transform="translate(118.457031 0)"/>
       <use xlink:href="#DejaVuSans-43" transform="translate(181.835938 0)"/>
       <use xlink:href="#DejaVuSans-68" transform="translate(251.660156 0)"/>
       <use xlink:href="#DejaVuSans-61" transform="translate(315.039062 0)"/>
       <use xlink:href="#DejaVuSans-69" transform="translate(376.318359 0)"/>
       <use xlink:href="#DejaVuSans-6e" transform="translate(404.101562 0)"/>
       <use xlink:href="#DejaVuSans-4d" transform="translate(467.480469 0)"/>
       <use xlink:href="#DejaVuSans-65" transform="translate(553.759766 0)"/>
       <use xlink:href="#DejaVuSans-6d" transform="translate(615.283203 0)"/>
       <use xlink:href="#DejaVuSans-62" transform="translate(712.695312 0)"/>
       <use xlink:href="#DejaVuSans-65" transform="translate(776.171875 0)"/>
       <use xlink:href="#DejaVuSans-72" transform="translate(837.695312 0)"/>
       <use xlink:href="#DejaVuSans-20" transform="translate(878.808594 0)"/>
       <use xlink:href="#DejaVuSans-73" transform="translate(910.595703 0)"/>
       <use xlink:href="#DejaVuSans-77" transform="translate(962.695312 0)"/>
       <use xlink:href="#DejaVuSans-69" transform="translate(1044.482422 0)"/>
       <use xlink:href="#DejaVuSans-74" transform="translate(1072.265625 0)"/>
       <use xlink:href="#DejaVuSans-63" transform="translate(1111.474609 0)"/>
       <use xlink:href="#DejaVuSans-68" transform="translate(1166.455078 0)"/>
       <use xlink:href="#DejaVuSans-20" transform="translate(1229.833984 0)"/>
       <use xlink:href="#DejaVuSans-74" transform="translate(1261.621094 0)"/>
       <use xlink:href="#DejaVuSans-6f" transform="translate(1300.830078 0)"/>
       <use xlink:href="#DejaVuSans-20" transform="translate(1362.011719 0)"/>
       <use xlink:href="#DejaVuSans-6c" transform="translate(1393.798828 0)"/>
       <use xlink:href="#DejaVuSans-6f" transform="translate(1421.582031 0)"/>
       <use xlink:href="#DejaVuSans-61" transform="translate(1482.763672 0)"/>
       <use xlink:href="#DejaVuSans-64" transform="translate(1544.042969 0)"/>
       <use xlink:href="#DejaVuSans-20" transform="translate(1607.519531 0)"/>
       <use xlink:href="#DejaVuSans-73" transform="translate(1639.306641 0)"/>
       <use xlink:href="#DejaVuSans-74" transform="translate(1691.40625 0)"/>
       <use xlink:href="#DejaVuSans-61" transform="translate(1730.615234 0)"/>
       <use xlink:href="#DejaVuSans-74" transform="translate(1791.894531 0)"/>
       <use xlink:href="#DejaVuSans-65" transform="translate(1831.103516 0)"/>
      </g>
     </g>
    </g>
    <g id="xtick_9">
     <g id="line2d_9">
      <g>
       <use xlink:href="#m6a8f1c2bbd" x="637.72699" y="321.485042" style="stroke: #000000; stroke-width: 0.8"/>
      </g>
     </g>
     <g id="text_9">
      <!-- Robot with load Position updated -->
      <g transform="translate(519.713078 450.4013) rotate(-45) scale(0.1 -0.1)">
       <defs>
        <path id="DejaVuSans-52" d="M 2841 2188 
Q 3044 2119 3236 1894 
Q 3428 1669 3622 1275 
L 4263 0 
L 3584 0 
L 2988 1197 
Q 2756 1666 2539 1819 
Q 2322 1972 1947 1972 
L 1259 1972 
L 1259 0 
L 628 0 
L 628 4666 
L 2053 4666 
Q 2853 4666 3247 4331 
Q 3641 3997 3641 3322 
Q 3641 2881 3436 2590 
Q 3231 2300 2841 2188 
z
M 1259 4147 
L 1259 2491 
L 2053 2491 
Q 2509 2491 2742 2702 
Q 2975 2913 2975 3322 
Q 2975 3731 2742 3939 
Q 2509 4147 2053 4147 
L 1259 4147 
z
" transform="scale(0.015625)"/>
        <path id="DejaVuSans-50" d="M 1259 4147 
L 1259 2394 
L 2053 2394 
Q 2494 2394 2734 2622 
Q 2975 2850 2975 3272 
Q 2975 3691 2734 3919 
Q 2494 4147 2053 4147 
L 1259 4147 
z
M 628 4666 
L 2053 4666 
Q 2838 4666 3239 4311 
Q 3641 3956 3641 3272 
Q 3641 2581 3239 2228 
Q 2838 1875 2053 1875 
L 1259 1875 
L 1259 0 
L 628 0 
L 628 4666 
z
" transform="scale(0.015625)"/>
       </defs>
       <use xlink:href="#DejaVuSans-52"/>
       <use xlink:href="#DejaVuSans-6f" transform="translate(64.982422 0)"/>
       <use xlink:href="#DejaVuSans-62" transform="translate(126.164062 0)"/>
       <use xlink:href="#DejaVuSans-6f" transform="translate(189.640625 0)"/>
       <use xlink:href="#DejaVuSans-74" transform="translate(250.822266 0)"/>
       <use xlink:href="#DejaVuSans-20" transform="translate(290.03125 0)"/>
       <use xlink:href="#DejaVuSans-77" transform="translate(321.818359 0)"/>
       <use xlink:href="#DejaVuSans-69" transform="translate(403.605469 0)"/>
       <use xlink:href="#DejaVuSans-74" transform="translate(431.388672 0)"/>
       <use xlink:href="#DejaVuSans-68" transform="translate(470.597656 0)"/>
       <use xlink:href="#DejaVuSans-20" transform="translate(533.976562 0)"/>
       <use xlink:href="#DejaVuSans-6c" transform="translate(565.763672 0)"/>
       <use xlink:href="#DejaVuSans-6f" transform="translate(593.546875 0)"/>
       <use xlink:href="#DejaVuSans-61" transform="translate(654.728516 0)"/>
       <use xlink:href="#DejaVuSans-64" transform="translate(716.007812 0)"/>
       <use xlink:href="#DejaVuSans-20" transform="translate(779.484375 0)"/>
       <use xlink:href="#DejaVuSans-50" transform="translate(811.271484 0)"/>
       <use xlink:href="#DejaVuSans-6f" transform="translate(867.949219 0)"/>
       <use xlink:href="#DejaVuSans-73" transform="translate(929.130859 0)"/>
       <use xlink:href="#DejaVuSans-69" transform="translate(981.230469 0)"/>
       <use xlink:href="#DejaVuSans-74" transform="translate(1009.013672 0)"/>
       <use xlink:href="#DejaVuSans-69" transform="translate(1048.222656 0)"/>
       <use xlink:href="#DejaVuSans-6f" transform="translate(1076.005859 0)"/>
       <use xlink:href="#DejaVuSans-6e" transform="translate(1137.1875 0)"/>
       <use xlink:href="#DejaVuSans-20" transform="translate(1200.566406 0)"/>
       <use xlink:href="#DejaVuSans-75" transform="translate(1232.353516 0)"/>
       <use xlink:href="#DejaVuSans-70" transform="translate(1295.732422 0)"/>
       <use xlink:href="#DejaVuSans-64" transform="translate(1359.208984 0)"/>
       <use xlink:href="#DejaVuSans-61" transform="translate(1422.685547 0)"/>
       <use xlink:href="#DejaVuSans-74" transform="translate(1483.964844 0)"/>
       <use xlink:href="#DejaVuSans-65" transform="translate(1523.173828 0)"/>
       <use xlink:href="#DejaVuSans-64" transform="translate(1584.697266 0)"/>
      </g>
     </g>
    </g>
    <g id="xtick_10">
     <g id="line2d_10">
      <g>
       <use xlink:href="#m6a8f1c2bbd" x="703.085719" y="321.485042" style="stroke: #000000; stroke-width: 0.8"/>
      </g>
     </g>
     <g id="text_10">
      <!-- to close to prey -->
      <g transform="translate(646.689534 388.783573) rotate(-45) scale(0.1 -0.1)">
       <use xlink:href="#DejaVuSans-74"/>
       <use xlink:href="#DejaVuSans-6f" transform="translate(39.208984 0)"/>
       <use xlink:href="#DejaVuSans-20" transform="translate(100.390625 0)"/>
       <use xlink:href="#DejaVuSans-63" transform="translate(132.177734 0)"/>
       <use xlink:href="#DejaVuSans-6c" transform="translate(187.158203 0)"/>
       <use xlink:href="#DejaVuSans-6f" transform="translate(214.941406 0)"/>
       <use xlink:href="#DejaVuSans-73" transform="translate(276.123047 0)"/>
       <use xlink:href="#DejaVuSans-65" transform="translate(328.222656 0)"/>
       <use xlink:href="#DejaVuSans-20" transform="translate(389.746094 0)"/>
       <use xlink:href="#DejaVuSans-74" transform="translate(421.533203 0)"/>
       <use xlink:href="#DejaVuSans-6f" transform="translate(460.742188 0)"/>
       <use xlink:href="#DejaVuSans-20" transform="translate(521.923828 0)"/>
       <use xlink:href="#DejaVuSans-70" transform="translate(553.710938 0)"/>
       <use xlink:href="#DejaVuSans-72" transform="translate(617.1875 0)"/>
       <use xlink:href="#DejaVuSans-65" transform="translate(656.050781 0)"/>
       <use xlink:href="#DejaVuSans-79" transform="translate(717.574219 0)"/>
      </g>
     </g>
    </g>
    <g id="xtick_11">
     <g id="line2d_11">
      <g>
       <use xlink:href="#m6a8f1c2bbd" x="768.444448" y="321.485042" style="stroke: #000000; stroke-width: 0.8"/>
      </g>
     </g>
     <g id="text_11">
      <!-- JoinChainMember executed -->
      <g transform="translate(670.060483 430.771353) rotate(-45) scale(0.1 -0.1)">
       <use xlink:href="#DejaVuSans-4a"/>
       <use xlink:href="#DejaVuSans-6f" transform="translate(29.492188 0)"/>
       <use xlink:href="#DejaVuSans-69" transform="translate(90.673828 0)"/>
       <use xlink:href="#DejaVuSans-6e" transform="translate(118.457031 0)"/>
       <use xlink:href="#DejaVuSans-43" transform="translate(181.835938 0)"/>
       <use xlink:href="#DejaVuSans-68" transform="translate(251.660156 0)"/>
       <use xlink:href="#DejaVuSans-61" transform="translate(315.039062 0)"/>
       <use xlink:href="#DejaVuSans-69" transform="translate(376.318359 0)"/>
       <use xlink:href="#DejaVuSans-6e" transform="translate(404.101562 0)"/>
       <use xlink:href="#DejaVuSans-4d" transform="translate(467.480469 0)"/>
       <use xlink:href="#DejaVuSans-65" transform="translate(553.759766 0)"/>
       <use xlink:href="#DejaVuSans-6d" transform="translate(615.283203 0)"/>
       <use xlink:href="#DejaVuSans-62" transform="translate(712.695312 0)"/>
       <use xlink:href="#DejaVuSans-65" transform="translate(776.171875 0)"/>
       <use xlink:href="#DejaVuSans-72" transform="translate(837.695312 0)"/>
       <use xlink:href="#DejaVuSans-20" transform="translate(878.808594 0)"/>
       <use xlink:href="#DejaVuSans-65" transform="translate(910.595703 0)"/>
       <use xlink:href="#DejaVuSans-78" transform="translate(970.369141 0)"/>
       <use xlink:href="#DejaVuSans-65" transform="translate(1026.423828 0)"/>
       <use xlink:href="#DejaVuSans-63" transform="translate(1087.947266 0)"/>
       <use xlink:href="#DejaVuSans-75" transform="translate(1142.927734 0)"/>
       <use xlink:href="#DejaVuSans-74" transform="translate(1206.306641 0)"/>
       <use xlink:href="#DejaVuSans-65" transform="translate(1245.515625 0)"/>
       <use xlink:href="#DejaVuSans-64" transform="translate(1307.039062 0)"/>
      </g>
     </g>
    </g>
    <g id="xtick_12">
     <g id="line2d_12">
      <g>
       <use xlink:href="#m6a8f1c2bbd" x="833.803177" y="321.485042" style="stroke: #000000; stroke-width: 0.8"/>
      </g>
     </g>
     <g id="text_12">
      <!-- Chainmember(Join) enabled -->
      <g transform="translate(733.179672 433.010893) rotate(-45) scale(0.1 -0.1)">
       <use xlink:href="#DejaVuSans-43"/>
       <use xlink:href="#DejaVuSans-68" transform="translate(69.824219 0)"/>
       <use xlink:href="#DejaVuSans-61" transform="translate(133.203125 0)"/>
       <use xlink:href="#DejaVuSans-69" transform="translate(194.482422 0)"/>
       <use xlink:href="#DejaVuSans-6e" transform="translate(222.265625 0)"/>
       <use xlink:href="#DejaVuSans-6d" transform="translate(285.644531 0)"/>
       <use xlink:href="#DejaVuSans-65" transform="translate(383.056641 0)"/>
       <use xlink:href="#DejaVuSans-6d" transform="translate(444.580078 0)"/>
       <use xlink:href="#DejaVuSans-62" transform="translate(541.992188 0)"/>
       <use xlink:href="#DejaVuSans-65" transform="translate(605.46875 0)"/>
       <use xlink:href="#DejaVuSans-72" transform="translate(666.992188 0)"/>
       <use xlink:href="#DejaVuSans-28" transform="translate(708.105469 0)"/>
       <use xlink:href="#DejaVuSans-4a" transform="translate(747.119141 0)"/>
       <use xlink:href="#DejaVuSans-6f" transform="translate(776.611328 0)"/>
       <use xlink:href="#DejaVuSans-69" transform="translate(837.792969 0)"/>
       <use xlink:href="#DejaVuSans-6e" transform="translate(865.576172 0)"/>
       <use xlink:href="#DejaVuSans-29" transform="translate(928.955078 0)"/>
       <use xlink:href="#DejaVuSans-20" transform="translate(967.96875 0)"/>
       <use xlink:href="#DejaVuSans-65" transform="translate(999.755859 0)"/>
       <use xlink:href="#DejaVuSans-6e" transform="translate(1061.279297 0)"/>
       <use xlink:href="#DejaVuSans-61" transform="translate(1124.658203 0)"/>
       <use xlink:href="#DejaVuSans-62" transform="translate(1185.9375 0)"/>
       <use xlink:href="#DejaVuSans-6c" transform="translate(1249.414062 0)"/>
       <use xlink:href="#DejaVuSans-65" transform="translate(1277.197266 0)"/>
       <use xlink:href="#DejaVuSans-64" transform="translate(1338.720703 0)"/>
      </g>
     </g>
    </g>
    <g id="xtick_13">
     <g id="line2d_13">
      <g>
       <use xlink:href="#m6a8f1c2bbd" x="899.161906" y="321.485042" style="stroke: #000000; stroke-width: 0.8"/>
      </g>
     </g>
     <g id="text_13">
      <!-- ChainMember(Join) fallback -->
      <g transform="translate(800.227724 431.32157) rotate(-45) scale(0.1 -0.1)">
       <use xlink:href="#DejaVuSans-43"/>
       <use xlink:href="#DejaVuSans-68" transform="translate(69.824219 0)"/>
       <use xlink:href="#DejaVuSans-61" transform="translate(133.203125 0)"/>
       <use xlink:href="#DejaVuSans-69" transform="translate(194.482422 0)"/>
       <use xlink:href="#DejaVuSans-6e" transform="translate(222.265625 0)"/>
       <use xlink:href="#DejaVuSans-4d" transform="translate(285.644531 0)"/>
       <use xlink:href="#DejaVuSans-65" transform="translate(371.923828 0)"/>
       <use xlink:href="#DejaVuSans-6d" transform="translate(433.447266 0)"/>
       <use xlink:href="#DejaVuSans-62" transform="translate(530.859375 0)"/>
       <use xlink:href="#DejaVuSans-65" transform="translate(594.335938 0)"/>
       <use xlink:href="#DejaVuSans-72" transform="translate(655.859375 0)"/>
       <use xlink:href="#DejaVuSans-28" transform="translate(696.972656 0)"/>
       <use xlink:href="#DejaVuSans-4a" transform="translate(735.986328 0)"/>
       <use xlink:href="#DejaVuSans-6f" transform="translate(765.478516 0)"/>
       <use xlink:href="#DejaVuSans-69" transform="translate(826.660156 0)"/>
       <use xlink:href="#DejaVuSans-6e" transform="translate(854.443359 0)"/>
       <use xlink:href="#DejaVuSans-29" transform="translate(917.822266 0)"/>
       <use xlink:href="#DejaVuSans-20" transform="translate(956.835938 0)"/>
       <use xlink:href="#DejaVuSans-66" transform="translate(988.623047 0)"/>
       <use xlink:href="#DejaVuSans-61" transform="translate(1023.828125 0)"/>
       <use xlink:href="#DejaVuSans-6c" transform="translate(1085.107422 0)"/>
       <use xlink:href="#DejaVuSans-6c" transform="translate(1112.890625 0)"/>
       <use xlink:href="#DejaVuSans-62" transform="translate(1140.673828 0)"/>
       <use xlink:href="#DejaVuSans-61" transform="translate(1204.150391 0)"/>
       <use xlink:href="#DejaVuSans-63" transform="translate(1265.429688 0)"/>
       <use xlink:href="#DejaVuSans-6b" transform="translate(1320.410156 0)"/>
      </g>
     </g>
    </g>
    <g id="xtick_14">
     <g id="line2d_14">
      <g>
       <use xlink:href="#m6a8f1c2bbd" x="964.520635" y="321.485042" style="stroke: #000000; stroke-width: 0.8"/>
      </g>
     </g>
     <g id="text_14">
      <!-- Transfer for JoinChainMember successful -->
      <g transform="translate(819.421219 477.486804) rotate(-45) scale(0.1 -0.1)">
       <use xlink:href="#DejaVuSans-54"/>
       <use xlink:href="#DejaVuSans-72" transform="translate(46.333984 0)"/>
       <use xlink:href="#DejaVuSans-61" transform="translate(87.447266 0)"/>
       <use xlink:href="#DejaVuSans-6e" transform="translate(148.726562 0)"/>
       <use xlink:href="#DejaVuSans-73" transform="translate(212.105469 0)"/>
       <use xlink:href="#DejaVuSans-66" transform="translate(264.205078 0)"/>
       <use xlink:href="#DejaVuSans-65" transform="translate(299.410156 0)"/>
       <use xlink:href="#DejaVuSans-72" transform="translate(360.933594 0)"/>
       <use xlink:href="#DejaVuSans-20" transform="translate(402.046875 0)"/>
       <use xlink:href="#DejaVuSans-66" transform="translate(433.833984 0)"/>
       <use xlink:href="#DejaVuSans-6f" transform="translate(469.039062 0)"/>
       <use xlink:href="#DejaVuSans-72" transform="translate(530.220703 0)"/>
       <use xlink:href="#DejaVuSans-20" transform="translate(571.333984 0)"/>
       <use xlink:href="#DejaVuSans-4a" transform="translate(603.121094 0)"/>
       <use xlink:href="#DejaVuSans-6f" transform="translate(632.613281 0)"/>
       <use xlink:href="#DejaVuSans-69" transform="translate(693.794922 0)"/>
       <use xlink:href="#DejaVuSans-6e" transform="translate(721.578125 0)"/>
       <use xlink:href="#DejaVuSans-43" transform="translate(784.957031 0)"/>
       <use xlink:href="#DejaVuSans-68" transform="translate(854.78125 0)"/>
       <use xlink:href="#DejaVuSans-61" transform="translate(918.160156 0)"/>
       <use xlink:href="#DejaVuSans-69" transform="translate(979.439453 0)"/>
       <use xlink:href="#DejaVuSans-6e" transform="translate(1007.222656 0)"/>
       <use xlink:href="#DejaVuSans-4d" transform="translate(1070.601562 0)"/>
       <use xlink:href="#DejaVuSans-65" transform="translate(1156.880859 0)"/>
       <use xlink:href="#DejaVuSans-6d" transform="translate(1218.404297 0)"/>
       <use xlink:href="#DejaVuSans-62" transform="translate(1315.816406 0)"/>
       <use xlink:href="#DejaVuSans-65" transform="translate(1379.292969 0)"/>
       <use xlink:href="#DejaVuSans-72" transform="translate(1440.816406 0)"/>
       <use xlink:href="#DejaVuSans-20" transform="translate(1481.929688 0)"/>
       <use xlink:href="#DejaVuSans-73" transform="translate(1513.716797 0)"/>
       <use xlink:href="#DejaVuSans-75" transform="translate(1565.816406 0)"/>
       <use xlink:href="#DejaVuSans-63" transform="translate(1629.195312 0)"/>
       <use xlink:href="#DejaVuSans-63" transform="translate(1684.175781 0)"/>
       <use xlink:href="#DejaVuSans-65" transform="translate(1739.15625 0)"/>
       <use xlink:href="#DejaVuSans-73" transform="translate(1800.679688 0)"/>
       <use xlink:href="#DejaVuSans-73" transform="translate(1852.779297 0)"/>
       <use xlink:href="#DejaVuSans-66" transform="translate(1904.878906 0)"/>
       <use xlink:href="#DejaVuSans-75" transform="translate(1940.083984 0)"/>
       <use xlink:href="#DejaVuSans-6c" transform="translate(2003.462891 0)"/>
      </g>
     </g>
    </g>
    <g id="text_15">
     <!-- Action -->
     <g transform="translate(524.029521 490.555803) scale(0.1 -0.1)">
      <defs>
       <path id="DejaVuSans-41" d="M 2188 4044 
L 1331 1722 
L 3047 1722 
L 2188 4044 
z
M 1831 4666 
L 2547 4666 
L 4325 0 
L 3669 0 
L 3244 1197 
L 1141 1197 
L 716 0 
L 50 0 
L 1831 4666 
z
" transform="scale(0.015625)"/>
      </defs>
      <use xlink:href="#DejaVuSans-41"/>
      <use xlink:href="#DejaVuSans-63" transform="translate(66.658203 0)"/>
      <use xlink:href="#DejaVuSans-74" transform="translate(121.638672 0)"/>
      <use xlink:href="#DejaVuSans-69" transform="translate(160.847656 0)"/>
      <use xlink:href="#DejaVuSans-6f" transform="translate(188.630859 0)"/>
      <use xlink:href="#DejaVuSans-6e" transform="translate(249.8125 0)"/>
     </g>
    </g>
   </g>
   <g id="matplotlib.axis_2">
    <g id="ytick_1">
     <g id="line2d_15">
      <defs>
       <path id="m13a5650083" d="M 0 0 
L -3.5 0 
" style="stroke: #000000; stroke-width: 0.8"/>
      </defs>
      <g>
       <use xlink:href="#m13a5650083" x="82.177792" y="308.112402" style="stroke: #000000; stroke-width: 0.8"/>
      </g>
     </g>
     <g id="text_16">
      <!-- 0.00 -->
      <g transform="translate(52.912167 311.911621) scale(0.1 -0.1)">
       <defs>
        <path id="DejaVuSans-30" d="M 2034 4250 
Q 1547 4250 1301 3770 
Q 1056 3291 1056 2328 
Q 1056 1369 1301 889 
Q 1547 409 2034 409 
Q 2525 409 2770 889 
Q 3016 1369 3016 2328 
Q 3016 3291 2770 3770 
Q 2525 4250 2034 4250 
z
M 2034 4750 
Q 2819 4750 3233 4129 
Q 3647 3509 3647 2328 
Q 3647 1150 3233 529 
Q 2819 -91 2034 -91 
Q 1250 -91 836 529 
Q 422 1150 422 2328 
Q 422 3509 836 4129 
Q 1250 4750 2034 4750 
z
" transform="scale(0.015625)"/>
        <path id="DejaVuSans-2e" d="M 684 794 
L 1344 794 
L 1344 0 
L 684 0 
L 684 794 
z
" transform="scale(0.015625)"/>
       </defs>
       <use xlink:href="#DejaVuSans-30"/>
       <use xlink:href="#DejaVuSans-2e" transform="translate(63.623047 0)"/>
       <use xlink:href="#DejaVuSans-30" transform="translate(95.410156 0)"/>
       <use xlink:href="#DejaVuSans-30" transform="translate(159.033203 0)"/>
      </g>
     </g>
    </g>
    <g id="ytick_2">
     <g id="line2d_16">
      <g>
       <use xlink:href="#m13a5650083" x="82.177792" y="267.276731" style="stroke: #000000; stroke-width: 0.8"/>
      </g>
     </g>
     <g id="text_17">
      <!-- 0.02 -->
      <g transform="translate(52.912167 271.07595) scale(0.1 -0.1)">
       <defs>
        <path id="DejaVuSans-32" d="M 1228 531 
L 3431 531 
L 3431 0 
L 469 0 
L 469 531 
Q 828 903 1448 1529 
Q 2069 2156 2228 2338 
Q 2531 2678 2651 2914 
Q 2772 3150 2772 3378 
Q 2772 3750 2511 3984 
Q 2250 4219 1831 4219 
Q 1534 4219 1204 4116 
Q 875 4013 500 3803 
L 500 4441 
Q 881 4594 1212 4672 
Q 1544 4750 1819 4750 
Q 2544 4750 2975 4387 
Q 3406 4025 3406 3419 
Q 3406 3131 3298 2873 
Q 3191 2616 2906 2266 
Q 2828 2175 2409 1742 
Q 1991 1309 1228 531 
z
" transform="scale(0.015625)"/>
       </defs>
       <use xlink:href="#DejaVuSans-30"/>
       <use xlink:href="#DejaVuSans-2e" transform="translate(63.623047 0)"/>
       <use xlink:href="#DejaVuSans-30" transform="translate(95.410156 0)"/>
       <use xlink:href="#DejaVuSans-32" transform="translate(159.033203 0)"/>
      </g>
     </g>
    </g>
    <g id="ytick_3">
     <g id="line2d_17">
      <g>
       <use xlink:href="#m13a5650083" x="82.177792" y="226.44106" style="stroke: #000000; stroke-width: 0.8"/>
      </g>
     </g>
     <g id="text_18">
      <!-- 0.04 -->
      <g transform="translate(52.912167 230.240279) scale(0.1 -0.1)">
       <defs>
        <path id="DejaVuSans-34" d="M 2419 4116 
L 825 1625 
L 2419 1625 
L 2419 4116 
z
M 2253 4666 
L 3047 4666 
L 3047 1625 
L 3713 1625 
L 3713 1100 
L 3047 1100 
L 3047 0 
L 2419 0 
L 2419 1100 
L 313 1100 
L 313 1709 
L 2253 4666 
z
" transform="scale(0.015625)"/>
       </defs>
       <use xlink:href="#DejaVuSans-30"/>
       <use xlink:href="#DejaVuSans-2e" transform="translate(63.623047 0)"/>
       <use xlink:href="#DejaVuSans-30" transform="translate(95.410156 0)"/>
       <use xlink:href="#DejaVuSans-34" transform="translate(159.033203 0)"/>
      </g>
     </g>
    </g>
    <g id="ytick_4">
     <g id="line2d_18">
      <g>
       <use xlink:href="#m13a5650083" x="82.177792" y="185.605389" style="stroke: #000000; stroke-width: 0.8"/>
      </g>
     </g>
     <g id="text_19">
      <!-- 0.06 -->
      <g transform="translate(52.912167 189.404608) scale(0.1 -0.1)">
       <defs>
        <path id="DejaVuSans-36" d="M 2113 2584 
Q 1688 2584 1439 2293 
Q 1191 2003 1191 1497 
Q 1191 994 1439 701 
Q 1688 409 2113 409 
Q 2538 409 2786 701 
Q 3034 994 3034 1497 
Q 3034 2003 2786 2293 
Q 2538 2584 2113 2584 
z
M 3366 4563 
L 3366 3988 
Q 3128 4100 2886 4159 
Q 2644 4219 2406 4219 
Q 1781 4219 1451 3797 
Q 1122 3375 1075 2522 
Q 1259 2794 1537 2939 
Q 1816 3084 2150 3084 
Q 2853 3084 3261 2657 
Q 3669 2231 3669 1497 
Q 3669 778 3244 343 
Q 2819 -91 2113 -91 
Q 1303 -91 875 529 
Q 447 1150 447 2328 
Q 447 3434 972 4092 
Q 1497 4750 2381 4750 
Q 2619 4750 2861 4703 
Q 3103 4656 3366 4563 
z
" transform="scale(0.015625)"/>
       </defs>
       <use xlink:href="#DejaVuSans-30"/>
       <use xlink:href="#DejaVuSans-2e" transform="translate(63.623047 0)"/>
       <use xlink:href="#DejaVuSans-30" transform="translate(95.410156 0)"/>
       <use xlink:href="#DejaVuSans-36" transform="translate(159.033203 0)"/>
      </g>
     </g>
    </g>
    <g id="ytick_5">
     <g id="line2d_19">
      <g>
       <use xlink:href="#m13a5650083" x="82.177792" y="144.769718" style="stroke: #000000; stroke-width: 0.8"/>
      </g>
     </g>
     <g id="text_20">
      <!-- 0.08 -->
      <g transform="translate(52.912167 148.568937) scale(0.1 -0.1)">
       <defs>
        <path id="DejaVuSans-38" d="M 2034 2216 
Q 1584 2216 1326 1975 
Q 1069 1734 1069 1313 
Q 1069 891 1326 650 
Q 1584 409 2034 409 
Q 2484 409 2743 651 
Q 3003 894 3003 1313 
Q 3003 1734 2745 1975 
Q 2488 2216 2034 2216 
z
M 1403 2484 
Q 997 2584 770 2862 
Q 544 3141 544 3541 
Q 544 4100 942 4425 
Q 1341 4750 2034 4750 
Q 2731 4750 3128 4425 
Q 3525 4100 3525 3541 
Q 3525 3141 3298 2862 
Q 3072 2584 2669 2484 
Q 3125 2378 3379 2068 
Q 3634 1759 3634 1313 
Q 3634 634 3220 271 
Q 2806 -91 2034 -91 
Q 1263 -91 848 271 
Q 434 634 434 1313 
Q 434 1759 690 2068 
Q 947 2378 1403 2484 
z
M 1172 3481 
Q 1172 3119 1398 2916 
Q 1625 2713 2034 2713 
Q 2441 2713 2670 2916 
Q 2900 3119 2900 3481 
Q 2900 3844 2670 4047 
Q 2441 4250 2034 4250 
Q 1625 4250 1398 4047 
Q 1172 3844 1172 3481 
z
" transform="scale(0.015625)"/>
       </defs>
       <use xlink:href="#DejaVuSans-30"/>
       <use xlink:href="#DejaVuSans-2e" transform="translate(63.623047 0)"/>
       <use xlink:href="#DejaVuSans-30" transform="translate(95.410156 0)"/>
       <use xlink:href="#DejaVuSans-38" transform="translate(159.033203 0)"/>
      </g>
     </g>
    </g>
    <g id="ytick_6">
     <g id="line2d_20">
      <g>
       <use xlink:href="#m13a5650083" x="82.177792" y="103.934047" style="stroke: #000000; stroke-width: 0.8"/>
      </g>
     </g>
     <g id="text_21">
      <!-- 0.10 -->
      <g transform="translate(52.912167 107.733266) scale(0.1 -0.1)">
       <defs>
        <path id="DejaVuSans-31" d="M 794 531 
L 1825 531 
L 1825 4091 
L 703 3866 
L 703 4441 
L 1819 4666 
L 2450 4666 
L 2450 531 
L 3481 531 
L 3481 0 
L 794 0 
L 794 531 
z
" transform="scale(0.015625)"/>
       </defs>
       <use xlink:href="#DejaVuSans-30"/>
       <use xlink:href="#DejaVuSans-2e" transform="translate(63.623047 0)"/>
       <use xlink:href="#DejaVuSans-31" transform="translate(95.410156 0)"/>
       <use xlink:href="#DejaVuSans-30" transform="translate(159.033203 0)"/>
      </g>
     </g>
    </g>
    <g id="ytick_7">
     <g id="line2d_21">
      <g>
       <use xlink:href="#m13a5650083" x="82.177792" y="63.098376" style="stroke: #000000; stroke-width: 0.8"/>
      </g>
     </g>
     <g id="text_22">
      <!-- 0.12 -->
      <g transform="translate(52.912167 66.897595) scale(0.1 -0.1)">
       <use xlink:href="#DejaVuSans-30"/>
       <use xlink:href="#DejaVuSans-2e" transform="translate(63.623047 0)"/>
       <use xlink:href="#DejaVuSans-31" transform="translate(95.410156 0)"/>
       <use xlink:href="#DejaVuSans-32" transform="translate(159.033203 0)"/>
      </g>
     </g>
    </g>
    <g id="text_23">
     <!-- Time (s) -->
     <g transform="translate(46.83248 194.511427) rotate(-90) scale(0.1 -0.1)">
      <use xlink:href="#DejaVuSans-54"/>
      <use xlink:href="#DejaVuSans-69" transform="translate(57.958984 0)"/>
      <use xlink:href="#DejaVuSans-6d" transform="translate(85.742188 0)"/>
      <use xlink:href="#DejaVuSans-65" transform="translate(183.154297 0)"/>
      <use xlink:href="#DejaVuSans-20" transform="translate(244.677734 0)"/>
      <use xlink:href="#DejaVuSans-28" transform="translate(276.464844 0)"/>
      <use xlink:href="#DejaVuSans-73" transform="translate(315.478516 0)"/>
      <use xlink:href="#DejaVuSans-29" transform="translate(367.578125 0)"/>
     </g>
    </g>
   </g>
   <g id="line2d_22">
    <path d="M 95.249538 307.228375 
L 134.464775 307.228375 
L 134.464775 190.5453 
L 95.249538 190.5453 
L 95.249538 307.228375 
" clip-path="url(#p2c8d8120b2)" style="fill: none; stroke: #000000; stroke-linecap: square"/>
   </g>
   <g id="line2d_23">
    <path d="M 114.857157 307.228375 
L 114.857157 307.324275 
" clip-path="url(#p2c8d8120b2)" style="fill: none; stroke: #000000; stroke-linecap: square"/>
   </g>
   <g id="line2d_24">
    <path d="M 114.857157 190.5453 
L 114.857157 109.918464 
" clip-path="url(#p2c8d8120b2)" style="fill: none; stroke: #000000; stroke-linecap: square"/>
   </g>
   <g id="line2d_25">
    <path d="M 105.053347 307.324275 
L 124.660966 307.324275 
" clip-path="url(#p2c8d8120b2)" style="fill: none; stroke: #000000; stroke-linecap: square"/>
   </g>
   <g id="line2d_26">
    <path d="M 105.053347 109.918464 
L 124.660966 109.918464 
" clip-path="url(#p2c8d8120b2)" style="fill: none; stroke: #000000; stroke-linecap: square"/>
   </g>
   <g id="line2d_27">
    <path d="M 160.608267 287.475162 
L 199.823505 287.475162 
L 199.823505 247.145801 
L 160.608267 247.145801 
L 160.608267 287.475162 
" clip-path="url(#p2c8d8120b2)" style="fill: none; stroke: #000000; stroke-linecap: square"/>
   </g>
   <g id="line2d_28">
    <path d="M 180.215886 287.475162 
L 180.215886 307.685966 
" clip-path="url(#p2c8d8120b2)" style="fill: none; stroke: #000000; stroke-linecap: square"/>
   </g>
   <g id="line2d_29">
    <path d="M 180.215886 247.145801 
L 180.215886 247.145801 
" clip-path="url(#p2c8d8120b2)" style="fill: none; stroke: #000000; stroke-linecap: square"/>
   </g>
   <g id="line2d_30">
    <path d="M 170.412076 307.685966 
L 190.019695 307.685966 
" clip-path="url(#p2c8d8120b2)" style="fill: none; stroke: #000000; stroke-linecap: square"/>
   </g>
   <g id="line2d_31">
    <path d="M 170.412076 247.145801 
L 190.019695 247.145801 
" clip-path="url(#p2c8d8120b2)" style="fill: none; stroke: #000000; stroke-linecap: square"/>
   </g>
   <g id="line2d_32">
    <path d="M 225.966996 268.463952 
L 265.182234 268.463952 
L 265.182234 176.781663 
L 225.966996 176.781663 
L 225.966996 268.463952 
" clip-path="url(#p2c8d8120b2)" style="fill: none; stroke: #000000; stroke-linecap: square"/>
   </g>
   <g id="line2d_33">
    <path d="M 245.574615 268.463952 
L 245.574615 307.47713 
" clip-path="url(#p2c8d8120b2)" style="fill: none; stroke: #000000; stroke-linecap: square"/>
   </g>
   <g id="line2d_34">
    <path d="M 245.574615 176.781663 
L 245.574615 88.865862 
" clip-path="url(#p2c8d8120b2)" style="fill: none; stroke: #000000; stroke-linecap: square"/>
   </g>
   <g id="line2d_35">
    <path d="M 235.770806 307.47713 
L 255.378424 307.47713 
" clip-path="url(#p2c8d8120b2)" style="fill: none; stroke: #000000; stroke-linecap: square"/>
   </g>
   <g id="line2d_36">
    <path d="M 235.770806 88.865862 
L 255.378424 88.865862 
" clip-path="url(#p2c8d8120b2)" style="fill: none; stroke: #000000; stroke-linecap: square"/>
   </g>
   <g id="line2d_37">
    <path d="M 291.325725 282.924929 
L 330.540963 282.924929 
L 330.540963 129.315462 
L 291.325725 129.315462 
L 291.325725 282.924929 
" clip-path="url(#p2c8d8120b2)" style="fill: none; stroke: #000000; stroke-linecap: square"/>
   </g>
   <g id="line2d_38">
    <path d="M 310.933344 282.924929 
L 310.933344 308.09001 
" clip-path="url(#p2c8d8120b2)" style="fill: none; stroke: #000000; stroke-linecap: square"/>
   </g>
   <g id="line2d_39">
    <path d="M 310.933344 129.315462 
L 310.933344 81.449964 
" clip-path="url(#p2c8d8120b2)" style="fill: none; stroke: #000000; stroke-linecap: square"/>
   </g>
   <g id="line2d_40">
    <path d="M 301.129535 308.09001 
L 320.737153 308.09001 
" clip-path="url(#p2c8d8120b2)" style="fill: none; stroke: #000000; stroke-linecap: square"/>
   </g>
   <g id="line2d_41">
    <path d="M 301.129535 81.449964 
L 320.737153 81.449964 
" clip-path="url(#p2c8d8120b2)" style="fill: none; stroke: #000000; stroke-linecap: square"/>
   </g>
   <g id="line2d_42">
    <path d="M 356.684454 251.693843 
L 395.899692 251.693843 
L 395.899692 147.746651 
L 356.684454 147.746651 
L 356.684454 251.693843 
" clip-path="url(#p2c8d8120b2)" style="fill: none; stroke: #000000; stroke-linecap: square"/>
   </g>
   <g id="line2d_43">
    <path d="M 376.292073 251.693843 
L 376.292073 308.093904 
" clip-path="url(#p2c8d8120b2)" style="fill: none; stroke: #000000; stroke-linecap: square"/>
   </g>
   <g id="line2d_44">
    <path d="M 376.292073 147.746651 
L 376.292073 101.048984 
" clip-path="url(#p2c8d8120b2)" style="fill: none; stroke: #000000; stroke-linecap: square"/>
   </g>
   <g id="line2d_45">
    <path d="M 366.488264 308.093904 
L 386.095883 308.093904 
" clip-path="url(#p2c8d8120b2)" style="fill: none; stroke: #000000; stroke-linecap: square"/>
   </g>
   <g id="line2d_46">
    <path d="M 366.488264 101.048984 
L 386.095883 101.048984 
" clip-path="url(#p2c8d8120b2)" style="fill: none; stroke: #000000; stroke-linecap: square"/>
   </g>
   <g id="line2d_47">
    <path d="M 422.043184 255.194416 
L 461.258421 255.194416 
L 461.258421 149.504726 
L 422.043184 149.504726 
L 422.043184 255.194416 
" clip-path="url(#p2c8d8120b2)" style="fill: none; stroke: #000000; stroke-linecap: square"/>
   </g>
   <g id="line2d_48">
    <path d="M 441.650802 255.194416 
L 441.650802 307.910381 
" clip-path="url(#p2c8d8120b2)" style="fill: none; stroke: #000000; stroke-linecap: square"/>
   </g>
   <g id="line2d_49">
    <path d="M 441.650802 149.504726 
L 441.650802 82.213752 
" clip-path="url(#p2c8d8120b2)" style="fill: none; stroke: #000000; stroke-linecap: square"/>
   </g>
   <g id="line2d_50">
    <path d="M 431.846993 307.910381 
L 451.454612 307.910381 
" clip-path="url(#p2c8d8120b2)" style="fill: none; stroke: #000000; stroke-linecap: square"/>
   </g>
   <g id="line2d_51">
    <path d="M 431.846993 82.213752 
L 451.454612 82.213752 
" clip-path="url(#p2c8d8120b2)" style="fill: none; stroke: #000000; stroke-linecap: square"/>
   </g>
   <g id="line2d_52">
    <path d="M 487.401913 244.17377 
L 526.61715 244.17377 
L 526.61715 158.286339 
L 487.401913 158.286339 
L 487.401913 244.17377 
" clip-path="url(#p2c8d8120b2)" style="fill: none; stroke: #000000; stroke-linecap: square"/>
   </g>
   <g id="line2d_53">
    <path d="M 507.009531 244.17377 
L 507.009531 304.924842 
" clip-path="url(#p2c8d8120b2)" style="fill: none; stroke: #000000; stroke-linecap: square"/>
   </g>
   <g id="line2d_54">
    <path d="M 507.009531 158.286339 
L 507.009531 104.361165 
" clip-path="url(#p2c8d8120b2)" style="fill: none; stroke: #000000; stroke-linecap: square"/>
   </g>
   <g id="line2d_55">
    <path d="M 497.205722 304.924842 
L 516.813341 304.924842 
" clip-path="url(#p2c8d8120b2)" style="fill: none; stroke: #000000; stroke-linecap: square"/>
   </g>
   <g id="line2d_56">
    <path d="M 497.205722 104.361165 
L 516.813341 104.361165 
" clip-path="url(#p2c8d8120b2)" style="fill: none; stroke: #000000; stroke-linecap: square"/>
   </g>
   <g id="line2d_57">
    <path d="M 552.760642 261.222084 
L 591.975879 261.222084 
L 591.975879 155.342543 
L 552.760642 155.342543 
L 552.760642 261.222084 
" clip-path="url(#p2c8d8120b2)" style="fill: none; stroke: #000000; stroke-linecap: square"/>
   </g>
   <g id="line2d_58">
    <path d="M 572.368261 261.222084 
L 572.368261 305.172136 
" clip-path="url(#p2c8d8120b2)" style="fill: none; stroke: #000000; stroke-linecap: square"/>
   </g>
   <g id="line2d_59">
    <path d="M 572.368261 155.342543 
L 572.368261 100.65711 
" clip-path="url(#p2c8d8120b2)" style="fill: none; stroke: #000000; stroke-linecap: square"/>
   </g>
   <g id="line2d_60">
    <path d="M 562.564451 305.172136 
L 582.17207 305.172136 
" clip-path="url(#p2c8d8120b2)" style="fill: none; stroke: #000000; stroke-linecap: square"/>
   </g>
   <g id="line2d_61">
    <path d="M 562.564451 100.65711 
L 582.17207 100.65711 
" clip-path="url(#p2c8d8120b2)" style="fill: none; stroke: #000000; stroke-linecap: square"/>
   </g>
   <g id="line2d_62">
    <path d="M 618.119371 243.365197 
L 657.334608 243.365197 
L 657.334608 134.883471 
L 618.119371 134.883471 
L 618.119371 243.365197 
" clip-path="url(#p2c8d8120b2)" style="fill: none; stroke: #000000; stroke-linecap: square"/>
   </g>
   <g id="line2d_63">
    <path d="M 637.72699 243.365197 
L 637.72699 308.091957 
" clip-path="url(#p2c8d8120b2)" style="fill: none; stroke: #000000; stroke-linecap: square"/>
   </g>
   <g id="line2d_64">
    <path d="M 637.72699 134.883471 
L 637.72699 87.983295 
" clip-path="url(#p2c8d8120b2)" style="fill: none; stroke: #000000; stroke-linecap: square"/>
   </g>
   <g id="line2d_65">
    <path d="M 627.92318 308.091957 
L 647.530799 308.091957 
" clip-path="url(#p2c8d8120b2)" style="fill: none; stroke: #000000; stroke-linecap: square"/>
   </g>
   <g id="line2d_66">
    <path d="M 627.92318 87.983295 
L 647.530799 87.983295 
" clip-path="url(#p2c8d8120b2)" style="fill: none; stroke: #000000; stroke-linecap: square"/>
   </g>
   <g id="line2d_67">
    <path d="M 683.4781 259.651062 
L 722.693338 259.651062 
L 722.693338 131.447156 
L 683.4781 131.447156 
L 683.4781 259.651062 
" clip-path="url(#p2c8d8120b2)" style="fill: none; stroke: #000000; stroke-linecap: square"/>
   </g>
   <g id="line2d_68">
    <path d="M 703.085719 259.651062 
L 703.085719 307.891882 
" clip-path="url(#p2c8d8120b2)" style="fill: none; stroke: #000000; stroke-linecap: square"/>
   </g>
   <g id="line2d_69">
    <path d="M 703.085719 131.447156 
L 703.085719 91.661062 
" clip-path="url(#p2c8d8120b2)" style="fill: none; stroke: #000000; stroke-linecap: square"/>
   </g>
   <g id="line2d_70">
    <path d="M 693.28191 307.891882 
L 712.889528 307.891882 
" clip-path="url(#p2c8d8120b2)" style="fill: none; stroke: #000000; stroke-linecap: square"/>
   </g>
   <g id="line2d_71">
    <path d="M 693.28191 91.661062 
L 712.889528 91.661062 
" clip-path="url(#p2c8d8120b2)" style="fill: none; stroke: #000000; stroke-linecap: square"/>
   </g>
   <g id="line2d_72">
    <path d="M 748.836829 251.694817 
L 788.052067 251.694817 
L 788.052067 135.550385 
L 748.836829 135.550385 
L 748.836829 251.694817 
" clip-path="url(#p2c8d8120b2)" style="fill: none; stroke: #000000; stroke-linecap: square"/>
   </g>
   <g id="line2d_73">
    <path d="M 768.444448 251.694817 
L 768.444448 307.826165 
" clip-path="url(#p2c8d8120b2)" style="fill: none; stroke: #000000; stroke-linecap: square"/>
   </g>
   <g id="line2d_74">
    <path d="M 768.444448 135.550385 
L 768.444448 60.41732 
" clip-path="url(#p2c8d8120b2)" style="fill: none; stroke: #000000; stroke-linecap: square"/>
   </g>
   <g id="line2d_75">
    <path d="M 758.640639 307.826165 
L 778.248257 307.826165 
" clip-path="url(#p2c8d8120b2)" style="fill: none; stroke: #000000; stroke-linecap: square"/>
   </g>
   <g id="line2d_76">
    <path d="M 758.640639 60.41732 
L 778.248257 60.41732 
" clip-path="url(#p2c8d8120b2)" style="fill: none; stroke: #000000; stroke-linecap: square"/>
   </g>
   <g id="line2d_77">
    <path d="M 814.195558 251.450931 
L 853.410796 251.450931 
L 853.410796 143.125954 
L 814.195558 143.125954 
L 814.195558 251.450931 
" clip-path="url(#p2c8d8120b2)" style="fill: none; stroke: #000000; stroke-linecap: square"/>
   </g>
   <g id="line2d_78">
    <path d="M 833.803177 251.450931 
L 833.803177 307.120306 
" clip-path="url(#p2c8d8120b2)" style="fill: none; stroke: #000000; stroke-linecap: square"/>
   </g>
   <g id="line2d_79">
    <path d="M 833.803177 143.125954 
L 833.803177 76.049414 
" clip-path="url(#p2c8d8120b2)" style="fill: none; stroke: #000000; stroke-linecap: square"/>
   </g>
   <g id="line2d_80">
    <path d="M 823.999368 307.120306 
L 843.606987 307.120306 
" clip-path="url(#p2c8d8120b2)" style="fill: none; stroke: #000000; stroke-linecap: square"/>
   </g>
   <g id="line2d_81">
    <path d="M 823.999368 76.049414 
L 843.606987 76.049414 
" clip-path="url(#p2c8d8120b2)" style="fill: none; stroke: #000000; stroke-linecap: square"/>
   </g>
   <g id="line2d_82">
    <path d="M 879.554288 252.947351 
L 918.769525 252.947351 
L 918.769525 141.200663 
L 879.554288 141.200663 
L 879.554288 252.947351 
" clip-path="url(#p2c8d8120b2)" style="fill: none; stroke: #000000; stroke-linecap: square"/>
   </g>
   <g id="line2d_83">
    <path d="M 899.161906 252.947351 
L 899.161906 307.614407 
" clip-path="url(#p2c8d8120b2)" style="fill: none; stroke: #000000; stroke-linecap: square"/>
   </g>
   <g id="line2d_84">
    <path d="M 899.161906 141.200663 
L 899.161906 83.06711 
" clip-path="url(#p2c8d8120b2)" style="fill: none; stroke: #000000; stroke-linecap: square"/>
   </g>
   <g id="line2d_85">
    <path d="M 889.358097 307.614407 
L 908.965716 307.614407 
" clip-path="url(#p2c8d8120b2)" style="fill: none; stroke: #000000; stroke-linecap: square"/>
   </g>
   <g id="line2d_86">
    <path d="M 889.358097 83.06711 
L 908.965716 83.06711 
" clip-path="url(#p2c8d8120b2)" style="fill: none; stroke: #000000; stroke-linecap: square"/>
   </g>
   <g id="line2d_87">
    <path d="M 944.913017 241.060203 
L 984.128254 241.060203 
L 984.128254 135.405076 
L 944.913017 135.405076 
L 944.913017 241.060203 
" clip-path="url(#p2c8d8120b2)" style="fill: none; stroke: #000000; stroke-linecap: square"/>
   </g>
   <g id="line2d_88">
    <path d="M 964.520635 241.060203 
L 964.520635 306.966964 
" clip-path="url(#p2c8d8120b2)" style="fill: none; stroke: #000000; stroke-linecap: square"/>
   </g>
   <g id="line2d_89">
    <path d="M 964.520635 135.405076 
L 964.520635 40.271138 
" clip-path="url(#p2c8d8120b2)" style="fill: none; stroke: #000000; stroke-linecap: square"/>
   </g>
   <g id="line2d_90">
    <path d="M 954.716826 306.966964 
L 974.324445 306.966964 
" clip-path="url(#p2c8d8120b2)" style="fill: none; stroke: #000000; stroke-linecap: square"/>
   </g>
   <g id="line2d_91">
    <path d="M 954.716826 40.271138 
L 974.324445 40.271138 
" clip-path="url(#p2c8d8120b2)" style="fill: none; stroke: #000000; stroke-linecap: square"/>
   </g>
   <g id="line2d_92">
    <path d="M 95.249538 306.838449 
L 134.464775 306.838449 
" clip-path="url(#p2c8d8120b2)" style="fill: none; stroke: #ff7f0e"/>
   </g>
   <g id="line2d_93">
    <path d="M 160.608267 274.101451 
L 199.823505 274.101451 
" clip-path="url(#p2c8d8120b2)" style="fill: none; stroke: #ff7f0e"/>
   </g>
   <g id="line2d_94">
    <path d="M 225.966996 227.578301 
L 265.182234 227.578301 
" clip-path="url(#p2c8d8120b2)" style="fill: none; stroke: #ff7f0e"/>
   </g>
   <g id="line2d_95">
    <path d="M 291.325725 217.179298 
L 330.540963 217.179298 
" clip-path="url(#p2c8d8120b2)" style="fill: none; stroke: #ff7f0e"/>
   </g>
   <g id="line2d_96">
    <path d="M 356.684454 212.881348 
L 395.899692 212.881348 
" clip-path="url(#p2c8d8120b2)" style="fill: none; stroke: #ff7f0e"/>
   </g>
   <g id="line2d_97">
    <path d="M 422.043184 204.64276 
L 461.258421 204.64276 
" clip-path="url(#p2c8d8120b2)" style="fill: none; stroke: #ff7f0e"/>
   </g>
   <g id="line2d_98">
    <path d="M 487.401913 203.070886 
L 526.61715 203.070886 
" clip-path="url(#p2c8d8120b2)" style="fill: none; stroke: #ff7f0e"/>
   </g>
   <g id="line2d_99">
    <path d="M 552.760642 202.956488 
L 591.975879 202.956488 
" clip-path="url(#p2c8d8120b2)" style="fill: none; stroke: #ff7f0e"/>
   </g>
   <g id="line2d_100">
    <path d="M 618.119371 196.894378 
L 657.334608 196.894378 
" clip-path="url(#p2c8d8120b2)" style="fill: none; stroke: #ff7f0e"/>
   </g>
   <g id="line2d_101">
    <path d="M 683.4781 196.596457 
L 722.693338 196.596457 
" clip-path="url(#p2c8d8120b2)" style="fill: none; stroke: #ff7f0e"/>
   </g>
   <g id="line2d_102">
    <path d="M 748.836829 196.52295 
L 788.052067 196.52295 
" clip-path="url(#p2c8d8120b2)" style="fill: none; stroke: #ff7f0e"/>
   </g>
   <g id="line2d_103">
    <path d="M 814.195558 195.548865 
L 853.410796 195.548865 
" clip-path="url(#p2c8d8120b2)" style="fill: none; stroke: #ff7f0e"/>
   </g>
   <g id="line2d_104">
    <path d="M 879.554288 194.78313 
L 918.769525 194.78313 
" clip-path="url(#p2c8d8120b2)" style="fill: none; stroke: #ff7f0e"/>
   </g>
   <g id="line2d_105">
    <path d="M 944.913017 173.497351 
L 984.128254 173.497351 
" clip-path="url(#p2c8d8120b2)" style="fill: none; stroke: #ff7f0e"/>
   </g>
   <g id="patch_3">
    <path d="M 82.177792 321.485042 
L 82.177792 26.88 
" style="fill: none; stroke: #000000; stroke-width: 0.8; stroke-linejoin: miter; stroke-linecap: square"/>
   </g>
   <g id="patch_4">
    <path d="M 997.2 321.485042 
L 997.2 26.88 
" style="fill: none; stroke: #000000; stroke-width: 0.8; stroke-linejoin: miter; stroke-linecap: square"/>
   </g>
   <g id="patch_5">
    <path d="M 82.177792 321.485042 
L 997.2 321.485042 
" style="fill: none; stroke: #000000; stroke-width: 0.8; stroke-linejoin: miter; stroke-linecap: square"/>
   </g>
   <g id="patch_6">
    <path d="M 82.177792 26.88 
L 997.2 26.88 
" style="fill: none; stroke: #000000; stroke-width: 0.8; stroke-linejoin: miter; stroke-linecap: square"/>
   </g>
   <g id="text_24">
    <!-- Execution times per action (ordered by median) -->
    <g transform="translate(395.789209 20.88) scale(0.12 -0.12)">
     <defs>
      <path id="DejaVuSans-45" d="M 628 4666 
L 3578 4666 
L 3578 4134 
L 1259 4134 
L 1259 2753 
L 3481 2753 
L 3481 2222 
L 1259 2222 
L 1259 531 
L 3634 531 
L 3634 0 
L 628 0 
L 628 4666 
z
" transform="scale(0.015625)"/>
     </defs>
     <use xlink:href="#DejaVuSans-45"/>
     <use xlink:href="#DejaVuSans-78" transform="translate(63.183594 0)"/>
     <use xlink:href="#DejaVuSans-65" transform="translate(119.238281 0)"/>
     <use xlink:href="#DejaVuSans-63" transform="translate(180.761719 0)"/>
     <use xlink:href="#DejaVuSans-75" transform="translate(235.742188 0)"/>
     <use xlink:href="#DejaVuSans-74" transform="translate(299.121094 0)"/>
     <use xlink:href="#DejaVuSans-69" transform="translate(338.330078 0)"/>
     <use xlink:href="#DejaVuSans-6f" transform="translate(366.113281 0)"/>
     <use xlink:href="#DejaVuSans-6e" transform="translate(427.294922 0)"/>
     <use xlink:href="#DejaVuSans-20" transform="translate(490.673828 0)"/>
     <use xlink:href="#DejaVuSans-74" transform="translate(522.460938 0)"/>
     <use xlink:href="#DejaVuSans-69" transform="translate(561.669922 0)"/>
     <use xlink:href="#DejaVuSans-6d" transform="translate(589.453125 0)"/>
     <use xlink:href="#DejaVuSans-65" transform="translate(686.865234 0)"/>
     <use xlink:href="#DejaVuSans-73" transform="translate(748.388672 0)"/>
     <use xlink:href="#DejaVuSans-20" transform="translate(800.488281 0)"/>
     <use xlink:href="#DejaVuSans-70" transform="translate(832.275391 0)"/>
     <use xlink:href="#DejaVuSans-65" transform="translate(895.751953 0)"/>
     <use xlink:href="#DejaVuSans-72" transform="translate(957.275391 0)"/>
     <use xlink:href="#DejaVuSans-20" transform="translate(998.388672 0)"/>
     <use xlink:href="#DejaVuSans-61" transform="translate(1030.175781 0)"/>
     <use xlink:href="#DejaVuSans-63" transform="translate(1091.455078 0)"/>
     <use xlink:href="#DejaVuSans-74" transform="translate(1146.435547 0)"/>
     <use xlink:href="#DejaVuSans-69" transform="translate(1185.644531 0)"/>
     <use xlink:href="#DejaVuSans-6f" transform="translate(1213.427734 0)"/>
     <use xlink:href="#DejaVuSans-6e" transform="translate(1274.609375 0)"/>
     <use xlink:href="#DejaVuSans-20" transform="translate(1337.988281 0)"/>
     <use xlink:href="#DejaVuSans-28" transform="translate(1369.775391 0)"/>
     <use xlink:href="#DejaVuSans-6f" transform="translate(1408.789062 0)"/>
     <use xlink:href="#DejaVuSans-72" transform="translate(1469.970703 0)"/>
     <use xlink:href="#DejaVuSans-64" transform="translate(1509.333984 0)"/>
     <use xlink:href="#DejaVuSans-65" transform="translate(1572.810547 0)"/>
     <use xlink:href="#DejaVuSans-72" transform="translate(1634.333984 0)"/>
     <use xlink:href="#DejaVuSans-65" transform="translate(1673.197266 0)"/>
     <use xlink:href="#DejaVuSans-64" transform="translate(1734.720703 0)"/>
     <use xlink:href="#DejaVuSans-20" transform="translate(1798.197266 0)"/>
     <use xlink:href="#DejaVuSans-62" transform="translate(1829.984375 0)"/>
     <use xlink:href="#DejaVuSans-79" transform="translate(1893.460938 0)"/>
     <use xlink:href="#DejaVuSans-20" transform="translate(1952.640625 0)"/>
     <use xlink:href="#DejaVuSans-6d" transform="translate(1984.427734 0)"/>
     <use xlink:href="#DejaVuSans-65" transform="translate(2081.839844 0)"/>
     <use xlink:href="#DejaVuSans-64" transform="translate(2143.363281 0)"/>
     <use xlink:href="#DejaVuSans-69" transform="translate(2206.839844 0)"/>
     <use xlink:href="#DejaVuSans-61" transform="translate(2234.623047 0)"/>
     <use xlink:href="#DejaVuSans-6e" transform="translate(2295.902344 0)"/>
     <use xlink:href="#DejaVuSans-29" transform="translate(2359.28125 0)"/>
    </g>
   </g>
  </g>
 </g>
 <defs>
  <clipPath id="p2c8d8120b2">
   <rect x="82.177792" y="26.88" width="915.022208" height="294.605042"/>
  </clipPath>
 </defs>
</svg>
